<svg xmlns="http://www.w3.org/2000/svg" viewBox="0 0 60 40"><rect x="0" y="0" width="60" height="40" fill="#00008b"/><rect x="0" y="0" width="28" height="20" fill="#012169"/><line x1="0" y1="0" x2="28" y2="20" stroke="#fff" stroke-width="4"/><line x1="28" y1="0" x2="0" y2="20" stroke="#fff" stroke-width="4"/><rect x="11" y="0" width="5" height="20" fill="#fff"/><rect x="0" y="7.5" width="28" height="5" fill="#fff"/><polygon points="45.00,23.00 45.91,26.11 48.91,24.88 47.05,27.53 49.87,29.11 46.64,29.31 47.17,32.50 45.00,30.10 42.83,32.50 43.36,29.31 40.13,29.11 42.95,27.53 41.09,24.88 44.09,26.11" fill="#fff"/><polygon points="38.00,8.50 38.62,10.15 40.38,10.23 39.00,11.32 39.47,13.02 38.00,12.05 36.53,13.02 37.00,11.32 35.62,10.23 37.38,10.15" fill="#fff"/><polygon points="51.00,5.50 51.62,7.15 53.38,7.23 52.00,8.32 52.47,10.02 51.00,9.05 49.53,10.02 50.00,8.32 48.62,7.23 50.38,7.15" fill="#fff"/></svg>