<svg xmlns="http://www.w3.org/2000/svg" viewBox="0 0 60 40"><rect x="0" y="0" width="60" height="40" fill="#002395"/><polygon points="18,0 45,40 45,0" fill="#fecb00"/><polygon points="12.00,1.80 12.54,3.25 14.09,3.32 12.88,4.29 13.29,5.78 12.00,4.92 10.71,5.78 11.12,4.29 9.91,3.32 11.46,3.25" fill="#fff"/><polygon points="18.00,6.80 18.54,8.25 20.09,8.32 18.88,9.29 19.29,10.78 18.00,9.92 16.71,10.78 17.12,9.29 15.91,8.32 17.46,8.25" fill="#fff"/><polygon points="24.00,11.80 24.54,13.25 26.09,13.32 24.88,14.29 25.29,15.78 24.00,14.92 22.71,15.78 23.12,14.29 21.91,13.32 23.46,13.25" fill="#fff"/><polygon points="30.00,16.80 30.54,18.25 32.09,18.32 30.88,19.29 31.29,20.78 30.00,19.92 28.71,20.78 29.12,19.29 27.91,18.32 29.46,18.25" fill="#fff"/><polygon points="36.00,21.80 36.54,23.25 38.09,23.32 36.88,24.29 37.29,25.78 36.00,24.92 34.71,25.78 35.12,24.29 33.91,23.32 35.46,23.25" fill="#fff"/><polygon points="42.00,26.80 42.54,28.25 44.09,28.32 42.88,29.29 43.29,30.78 42.00,29.92 40.71,30.78 41.12,29.29 39.91,28.32 41.46,28.25" fill="#fff"/><polygon points="48.00,31.80 48.54,33.25 50.09,33.32 48.88,34.29 49.29,35.78 48.00,34.92 46.71,35.78 47.12,34.29 45.91,33.32 47.46,33.25" fill="#fff"/></svg>