<svg xmlns="http://www.w3.org/2000/svg" viewBox="0 0 60 40"><rect x="0" y="0" width="60" height="40" fill="#003893"/><rect x="0" y="23" width="60" height="2" fill="#fff"/><rect x="0" y="26" width="60" height="2" fill="#cf2027"/><polygon points="28.00,22.60 28.35,23.52 29.33,23.57 28.56,24.18 28.82,25.13 28.00,24.59 27.18,25.13 27.44,24.18 26.67,23.57 27.65,23.52" fill="#f7d117"/><polygon points="26.66,26.71 27.01,27.64 28.00,27.68 27.22,28.29 27.49,29.25 26.66,28.70 25.84,29.25 26.11,28.29 25.33,27.68 26.32,27.64" fill="#f7d117"/><polygon points="23.17,29.26 23.51,30.18 24.50,30.22 23.73,30.84 23.99,31.79 23.17,31.24 22.34,31.79 22.61,30.84 21.84,30.22 22.82,30.18" fill="#f7d117"/><polygon points="18.84,29.26 19.19,30.18 20.17,30.23 19.40,30.84 19.67,31.79 18.84,31.25 18.02,31.79 18.28,30.84 17.51,30.23 18.50,30.18" fill="#f7d117"/><polygon points="15.34,26.72 15.69,27.65 16.67,27.69 15.90,28.30 16.17,29.25 15.34,28.71 14.52,29.25 14.78,28.30 14.01,27.69 15.00,27.65" fill="#f7d117"/><polygon points="14.00,22.61 14.35,23.54 15.33,23.58 14.56,24.19 14.82,25.14 14.00,24.60 13.18,25.14 13.44,24.19 12.67,23.58 13.65,23.54" fill="#f7d117"/><polygon points="15.33,18.50 15.67,19.42 16.66,19.46 15.89,20.08 16.15,21.03 15.33,20.48 14.51,21.03 14.77,20.08 14.00,19.46 14.98,19.42" fill="#f7d117"/><polygon points="18.82,15.95 19.17,16.87 20.15,16.91 19.38,17.53 19.64,18.48 18.82,17.94 18.00,18.48 18.26,17.53 17.49,16.91 18.48,16.87" fill="#f7d117"/><polygon points="23.15,15.94 23.49,16.86 24.48,16.90 23.71,17.52 23.97,18.47 23.15,17.93 22.32,18.47 22.59,17.52 21.81,16.90 22.80,16.86" fill="#f7d117"/><polygon points="26.65,18.47 27.00,19.39 27.98,19.44 27.21,20.05 27.47,21.00 26.65,20.46 25.83,21.00 26.09,20.05 25.32,19.44 26.31,19.39" fill="#f7d117"/></svg>