<svg xmlns="http://www.w3.org/2000/svg" viewBox="0 0 60 40"><rect x="0" y="0.0" width="60" height="3.076923076923077" fill="#b22234"/><rect x="0" y="3.076923076923077" width="60" height="3.076923076923077" fill="#fff"/><rect x="0" y="6.153846153846154" width="60" height="3.076923076923077" fill="#b22234"/><rect x="0" y="9.230769230769232" width="60" height="3.076923076923077" fill="#fff"/><rect x="0" y="12.307692307692308" width="60" height="3.076923076923077" fill="#b22234"/><rect x="0" y="15.384615384615385" width="60" height="3.076923076923077" fill="#fff"/><rect x="0" y="18.461538461538463" width="60" height="3.076923076923077" fill="#b22234"/><rect x="0" y="21.53846153846154" width="60" height="3.076923076923077" fill="#fff"/><rect x="0" y="24.615384615384617" width="60" height="3.076923076923077" fill="#b22234"/><rect x="0" y="27.692307692307693" width="60" height="3.076923076923077" fill="#fff"/><rect x="0" y="30.76923076923077" width="60" height="3.076923076923077" fill="#b22234"/><rect x="0" y="33.84615384615385" width="60" height="3.076923076923077" fill="#fff"/><rect x="0" y="36.92307692307693" width="60" height="3.076923076923077" fill="#b22234"/><rect x="0" y="0" width="26" height="21.6" fill="#3c3b6e"/><circle cx="3" cy="3.0" r="0.7" fill="#fff"/><circle cx="7" cy="3.0" r="0.7" fill="#fff"/><circle cx="11" cy="3.0" r="0.7" fill="#fff"/><circle cx="15" cy="3.0" r="0.7" fill="#fff"/><circle cx="19" cy="3.0" r="0.7" fill="#fff"/><circle cx="23" cy="3.0" r="0.7" fill="#fff"/><circle cx="3" cy="6.5" r="0.7" fill="#fff"/><circle cx="7" cy="6.5" r="0.7" fill="#fff"/><circle cx="11" cy="6.5" r="0.7" fill="#fff"/><circle cx="15" cy="6.5" r="0.7" fill="#fff"/><circle cx="19" cy="6.5" r="0.7" fill="#fff"/><circle cx="23" cy="6.5" r="0.7" fill="#fff"/><circle cx="3" cy="10.0" r="0.7" fill="#fff"/><circle cx="7" cy="10.0" r="0.7" fill="#fff"/><circle cx="11" cy="10.0" r="0.7" fill="#fff"/><circle cx="15" cy="10.0" r="0.7" fill="#fff"/><circle cx="19" cy="10.0" r="0.7" fill="#fff"/><circle cx="23" cy="10.0" r="0.7" fill="#fff"/><circle cx="3" cy="13.5" r="0.7" fill="#fff"/><circle cx="7" cy="13.5" r="0.7" fill="#fff"/><circle cx="11" cy="13.5" r="0.7" fill="#fff"/><circle cx="15" cy="13.5" r="0.7" fill="#fff"/><circle cx="19" cy="13.5" r="0.7" fill="#fff"/><circle cx="23" cy="13.5" r="0.7" fill="#fff"/><circle cx="3" cy="17.0" r="0.7" fill="#fff"/><circle cx="7" cy="17.0" r="0.7" fill="#fff"/><circle cx="11" cy="17.0" r="0.7" fill="#fff"/><circle cx="15" cy="17.0" r="0.7" fill="#fff"/><circle cx="19" cy="17.0" r="0.7" fill="#fff"/><circle cx="23" cy="17.0" r="0.7" fill="#fff"/><circle cx="3" cy="20.5" r="0.7" fill="#fff"/><circle cx="7" cy="20.5" r="0.7" fill="#fff"/><circle cx="11" cy="20.5" r="0.7" fill="#fff"/><circle cx="15" cy="20.5" r="0.7" fill="#fff"/><circle cx="19" cy="20.5" r="0.7" fill="#fff"/><circle cx="23" cy="20.5" r="0.7" fill="#fff"/></svg>