<svg xmlns="http://www.w3.org/2000/svg" viewBox="0 0 60 40"><rect x="0" y="0" width="60" height="40" fill="#00247d"/><rect x="0" y="0" width="28" height="20" fill="#012169"/><line x1="0" y1="0" x2="28" y2="20" stroke="#fff" stroke-width="4"/><line x1="28" y1="0" x2="0" y2="20" stroke="#fff" stroke-width="4"/><rect x="11" y="0" width="5" height="20" fill="#fff"/><rect x="0" y="7.5" width="28" height="5" fill="#fff"/><polygon points="42.00,7.00 42.74,8.98 44.85,9.07 43.20,10.39 43.76,12.43 42.00,11.26 40.24,12.43 40.80,10.39 39.15,9.07 41.26,8.98" fill="#cc142b"/><polygon points="51.00,14.00 51.74,15.98 53.85,16.07 52.20,17.39 52.76,19.43 51.00,18.26 49.24,19.43 49.80,17.39 48.15,16.07 50.26,15.98" fill="#cc142b"/><polygon points="40.00,24.00 40.74,25.98 42.85,26.07 41.20,27.39 41.76,29.43 40.00,28.26 38.24,29.43 38.80,27.39 37.15,26.07 39.26,25.98" fill="#cc142b"/><polygon points="51.00,28.00 51.74,29.98 53.85,30.07 52.20,31.39 52.76,33.43 51.00,32.26 49.24,33.43 49.80,31.39 48.15,30.07 50.26,29.98" fill="#cc142b"/></svg>